<svg width="512" height="512" viewBox="0 0 512 512" xmlns="http://www.w3.org/2000/svg">
  <rect width="512" height="512" fill="#f6f1e7"/>
  <g transform="translate(76,76) scale(15)">
    <path d="M5.82452 3.24377C6.0787 3.22307 6.37314 3.23348 6.62967 3.23313C7.1666 3.23238 7.70372 3.23463 8.24069 3.23465L12.9245 3.23423L16.0144 3.23322C16.5286 3.23282 17.4973 3.20791 17.9796 3.2924C18.5752 3.39944 19.1287 3.67164 19.5772 4.07796C20.7914 5.16283 20.6814 6.49246 20.649 7.98185C20.6419 8.30831 20.4139 8.40611 20.1216 8.41373C19.5614 8.42833 18.9956 8.42186 18.4331 8.42151L15.0458 8.42057C15.0329 9.10919 15.0512 9.79729 15.0438 10.488C15.0408 10.7587 15.096 11.5789 14.9395 11.7787C14.6314 12.1721 14.189 11.7391 13.9315 11.5037C13.6401 11.2341 12.9852 10.6931 12.7524 10.4196C12.7451 10.4283 12.7376 10.437 12.73 10.4454C12.5188 10.6809 11.4535 11.6381 11.2149 11.7974C11.1178 11.8622 10.9914 11.9291 10.8713 11.9302C10.595 11.9326 9.32479 10.6848 9.05751 10.4318C8.55628 10.895 8.03529 11.3665 7.51392 11.8017C7.19381 12.0689 6.89315 11.8512 6.65496 11.6078C6.26074 11.2049 5.75589 10.8483 5.37806 10.4362C5.03381 10.7113 3.86763 11.9027 3.51942 11.9283C3.41627 11.9359 3.27351 11.878 3.19539 11.8111C3.09011 11.721 3.07073 11.5902 3.06145 11.4591C3.04052 11.1639 3.05407 10.8603 3.05468 10.564L3.05782 8.9316L3.0554 6.99768C3.05329 5.779 3.02599 4.7879 4.05572 3.92278C4.62274 3.44638 5.0925 3.29151 5.82452 3.24377Z" fill="#1F1E1F"/>
    <path d="M5.8308 4.15837C6.12642 4.13608 6.55362 4.14736 6.85631 4.14757L8.60651 4.14797C10.7463 4.14799 12.9949 4.18265 15.1278 4.1448C15.1012 4.1699 15.0755 4.19583 15.0506 4.22254C13.8806 5.48447 14.1692 6.79211 14.136 8.36489C14.1215 9.05083 14.1257 9.78874 14.1495 10.4737C13.9015 10.2376 13.0712 9.41107 12.7741 9.39389C12.4365 9.37434 11.6343 10.2114 11.3748 10.4415C11.2269 10.5742 11.0318 10.7396 10.9032 10.8849C10.4872 10.4392 9.87893 9.98322 9.42818 9.55854C9.23606 9.37753 8.92462 9.29801 8.71802 9.52005C8.36285 9.90173 7.49977 10.4865 7.22824 10.8907C7.00629 10.6736 5.61682 9.36086 5.346 9.38273C5.02978 9.40825 4.27268 10.1944 3.97043 10.4643C3.98876 9.44576 3.9566 8.39857 3.96797 7.37871C3.9732 6.9097 3.92641 6.10755 4.01292 5.67452C4.07283 5.35945 4.21538 5.06597 4.42594 4.82409C4.80499 4.38475 5.26458 4.19822 5.8308 4.15837Z" fill="#F9F9F9"/>
    <path d="M5.39085 7.27078C5.86283 7.23762 6.50788 7.25512 6.99196 7.2551L9.77701 7.25562C10.5029 7.25588 11.9639 7.22913 12.7393 7.29014C13.0192 7.31217 13.2887 7.88698 12.7186 8.15189C12.4532 8.18691 12.0109 8.17659 11.733 8.17713L10.1238 8.17746L7.18586 8.17622C6.90147 8.17617 5.542 8.20861 5.35869 8.14052C5.24068 8.09714 5.14565 8.00719 5.09586 7.89173C5.04594 7.7786 5.04358 7.65014 5.08933 7.53525C5.14839 7.38959 5.25311 7.32689 5.39085 7.27078Z" fill="#1F1E1F"/>
    <path d="M5.48066 5.51323C7.78967 5.45902 10.1363 5.54056 12.448 5.51117C12.8809 5.50568 13.1374 5.69211 13.0121 6.14989C12.9747 6.28683 12.7976 6.36064 12.6762 6.39945C10.3163 6.44082 7.93419 6.3818 5.5723 6.39856C5.32325 6.40034 5.11991 6.32408 5.06811 6.0503C5.00851 5.73507 5.18644 5.56726 5.48066 5.51323Z" fill="#1F1E1F"/>
    <path d="M17.1995 4.18135C17.2418 4.17905 17.284 4.17727 17.3263 4.17601C18.2779 4.14877 19.033 4.58459 19.4679 5.4338C19.8127 6.10695 19.747 6.7932 19.7617 7.52518C19.1455 7.48398 18.2938 7.50739 17.66 7.50751L15.0637 7.50528C15.0184 6.62096 15.0148 5.68402 15.6187 4.98235C16.0386 4.49441 16.5662 4.23816 17.1995 4.18135Z" fill="#B4B4B4"/>
    <path d="M14.6537 13.5706C15.0284 13.2798 16.146 12.0585 16.5471 12.0684C16.6388 12.0707 16.7331 12.1287 16.8055 12.1802C16.9953 12.3155 17.1646 12.4996 17.3394 12.6551C17.6788 12.9568 18.0397 13.2484 18.355 13.5747C18.8407 13.1145 19.3741 12.6294 19.8913 12.2003C20.0108 12.1012 20.1974 12.0375 20.3525 12.0951C20.4706 12.1381 20.5655 12.2283 20.6145 12.344C20.6886 12.5212 20.6522 15.2603 20.6526 15.6494L20.6549 17.1891C20.6554 17.4755 20.6651 17.8542 20.6433 18.1326C20.6215 18.4364 20.5515 18.7349 20.4359 19.0167C20.1421 19.7082 19.5899 20.2576 18.8969 20.5478C18.2295 20.8538 17.0098 20.7708 16.2522 20.7708L12.594 20.7706L8.23499 20.7711C8.00964 20.7711 7.78262 20.7717 7.55722 20.771C6.34705 20.7668 5.3886 20.8804 4.35357 20.1028C3.66702 19.5839 3.21339 18.8146 3.09153 17.9626C3.0092 17.3738 3.07053 16.6483 3.06001 16.0467C3.05406 15.707 3.29628 15.601 3.59563 15.5933C4.15309 15.5788 4.7147 15.5868 5.27335 15.587L8.66192 15.5887C8.67151 15.0923 8.606 12.5277 8.731 12.2829C8.79093 12.1655 8.88995 12.1104 9.01112 12.0715C9.03025 12.0706 9.04937 12.0701 9.06852 12.0699C9.21254 12.0687 9.3561 12.1287 9.46283 12.2225C9.95893 12.6583 10.501 13.1097 10.9673 13.5731C11.2619 13.2918 11.5615 13.018 11.8781 12.7427C12.0925 12.5562 12.518 12.088 12.8284 12.0707C12.9952 12.0614 13.2818 12.3194 13.4087 12.4366C13.8196 12.8161 14.2534 13.1781 14.6537 13.5706Z" fill="#1F1E1F"/>
    <path d="M12.8033 13.1239C13.1084 13.3697 14.3453 14.612 14.6143 14.6265C14.7235 14.6324 14.8355 14.58 14.9252 14.5225C15.1459 14.3809 15.3404 14.1785 15.5355 14.0034C15.8642 13.7102 16.1908 13.4148 16.5155 13.1172C16.5219 13.125 16.5285 13.1327 16.5352 13.1403C16.9248 13.5847 17.6109 14.0925 18.0555 14.5004C18.4093 14.8249 18.7445 14.4388 19.0091 14.2019C19.247 13.9889 19.5053 13.7506 19.7525 13.5251C19.7298 13.7654 19.7521 14.4009 19.7525 14.6671L19.7535 17.0431C19.7547 17.4215 19.7797 18.0221 19.6978 18.3688C19.6141 18.7119 19.4399 19.0262 19.1932 19.2789C18.5712 19.9082 17.8811 19.8576 17.0665 19.8603L11.4825 19.8605L9.75724 19.858C9.37779 19.8573 8.95343 19.8469 8.57812 19.8782C9.99759 18.3398 9.47705 16.932 9.57375 15.0309C9.59813 14.5518 9.5872 14.0091 9.58163 13.5291C9.60738 13.5554 9.6334 13.5816 9.6597 13.6074C9.76036 13.7063 9.91624 13.8629 10.0261 13.9452C10.5239 14.3184 10.8113 14.9773 11.4393 14.3626C11.867 13.944 12.3975 13.5605 12.8033 13.1239Z" fill="#F9F9F9"/>
    <path d="M11.0168 15.8491C11.3473 15.8263 11.8052 15.8371 12.1439 15.8371L14.0611 15.837C14.5771 15.8369 18.126 15.7844 18.3692 15.8718C18.4845 15.9132 18.5783 15.9964 18.627 16.1094C18.6761 16.2235 18.6697 16.3537 18.6235 16.4675C18.5673 16.6061 18.4573 16.6754 18.3251 16.7318C17.9353 16.7708 17.2805 16.7532 16.8701 16.7533L14.2887 16.7512L12.2255 16.7555C11.8777 16.7563 11.2495 16.7784 10.9311 16.7142C10.5689 16.4431 10.5541 15.9902 11.0168 15.8491Z" fill="#1F1E1F"/>
    <path d="M11.1573 17.5884L15.6453 17.5863C16.4621 17.5863 17.2817 17.5783 18.0984 17.5921C18.1889 17.602 18.3893 17.6013 18.4569 17.6625C18.8359 18.006 18.6741 18.4056 18.2142 18.4904C16.8391 18.524 15.3326 18.4934 13.9474 18.4943L12.1597 18.4952C11.8837 18.4952 11.0797 18.5469 10.8448 18.4009C10.6057 18.2523 10.6166 17.8883 10.8099 17.7026C10.9284 17.5888 10.9977 17.6011 11.1573 17.5884Z" fill="#1F1E1F"/>
    <path d="M3.96893 16.4987L8.66559 16.498C8.64464 17.5799 8.76961 18.2858 7.9649 19.1623C7.52953 19.5966 6.94064 19.8422 6.32561 19.8458C5.71047 19.852 5.11931 19.6077 4.68801 19.169C3.90518 18.3823 3.96616 17.521 3.96893 16.4987Z" fill="#B4B4B4"/>
  </g>
</svg>
